<svg width="150" height="46" viewBox="0 0 150 46" fill="none" xmlns="http://www.w3.org/2000/svg">
<path d="M22.2346 45.7725C22.1864 45.7765 21.8871 46.2038 21.7344 45.8748C22.6866 44.8397 23.1647 43.5058 23.5685 42.1899C23.9623 41.9392 31.1622 42.3083 32.4801 42.1618C32.92 42.1137 33.6654 41.9672 33.8823 41.558L34.043 16.5481L19.0264 4.25374L18.3273 4.56266L4.16437 16.2953L3.84495 17.3806C4.3733 24.7443 3.17397 33.0108 3.84495 40.2662C3.97955 41.7205 4.30098 42.0375 5.75343 42.1718C7.42686 42.3263 14.6791 42.3744 15.9547 41.9111C17.7226 41.2672 17.7909 39.3796 17.7145 37.7508H11.5873C11.5271 37.7508 11.4326 38.0055 11.286 37.9514V15.8861H21.8328C22.8252 15.8861 24.8683 16.8269 25.6457 17.4949C28.2995 19.7817 28.0223 24.6019 24.7458 26.1184C26.144 27.2738 27.8033 28.3209 28.1127 30.2767C28.8861 35.1631 25.4971 37.7347 20.9288 37.7528C21.6902 40.9542 20.0127 44.5449 16.7101 45.4736C14.8137 46.0072 6.50476 46.0353 4.37129 45.7564C2.23782 45.4776 0.421754 43.6763 0.226889 41.4698C0.791395 33.2495 -0.496322 24.0864 0.226889 15.9784C0.313272 14.9995 0.684922 14.0327 1.43626 13.3747C6.58311 9.69383 11.3081 4.67098 16.4128 1.04626C17.6583 0.161645 18.4377 -0.311755 20.0348 0.229846C24.7337 3.91073 29.533 7.59562 34.0832 11.4771C36.068 13.1721 37.5647 13.8963 37.8118 16.7808C37.3216 24.5879 38.4426 33.1391 37.8017 40.856C37.643 42.7596 36.9961 44.3944 35.2062 45.2851C35.0053 45.3853 34.0029 45.7725 33.8863 45.7725C30.1779 45.7725 25.8587 45.4917 22.2346 45.7725ZM15.3038 24.9108H20.4266C20.6596 24.9108 22.0659 24.2428 22.3411 24.0142C23.448 23.1015 23.7714 21.2861 22.7409 20.1929C22.4656 19.9 21.1538 19.2942 20.8284 19.2942H15.1029C15.0487 19.4406 15.3038 19.5349 15.3038 19.5951V24.9108ZM15.3038 34.5393H20.0248C20.1192 34.5393 21.3547 34.3026 21.5435 34.2504C23.5203 33.7229 24.7518 31.9516 23.7835 29.9818C23.3536 29.1072 21.7746 28.1183 20.8284 28.1183H15.1029C15.0487 28.2647 15.3038 28.359 15.3038 28.4192V34.5373V34.5393Z" fill="#0E0E0E"/>
<path d="M60.0023 13.6776C65.5349 14.3335 67.7748 21.0494 62.7143 24.0081C67.0857 26.0582 67.6503 32.1683 63.1221 34.447C62.7585 34.6295 60.8661 35.3417 60.603 35.3417H49.8552V13.6776C53.0595 13.9524 56.8704 13.3065 60.0003 13.6776H60.0023ZM58.3952 16.8871C56.9286 16.7146 55.1749 17.0135 53.6742 16.8871V22.7043H58.3952C59.3434 22.7043 61.0992 21.4426 61.3724 20.4637C61.9851 18.2652 60.4041 17.1238 58.3952 16.8871ZM53.6742 32.1322H59.1987C59.3514 32.1322 60.4282 31.6989 60.6472 31.5725C62.9574 30.2586 62.7686 26.997 60.2454 26.0722C60.0565 26.002 59.0862 25.7132 58.9978 25.7132H53.6742V32.1322Z" fill="#0E0E0E"/>
<path d="M103.096 30.5274L106.513 20.0966C107.256 20.6442 109.315 19.7736 109.699 20.4055L112.837 30.3288L116.051 20.2831L119.766 20.0986L114.553 35.2514L111.35 35.3236L108.015 25.1114L104.882 35.3236L101.78 35.3577L96.4662 20.0986L99.9798 20.2851L103.096 30.5294V30.5274Z" fill="#0E0E0E"/>
<path d="M133.629 35.3417H130.214C130.176 34.788 130.411 34.12 129.913 33.7409C126.489 37.7127 118.353 34.8081 120.873 29.1233C121.329 28.0922 122.148 27.4363 123.185 27.019C123.673 26.8225 125.467 26.315 125.895 26.315H130.013C130.915 22.3673 124.947 21.0995 124.589 25.1114H121.274C120.806 24.7704 121.218 23.5448 121.417 23.0473C123.179 18.6363 131.741 18.6744 133.171 23.4625C133.328 23.9901 133.629 25.5367 133.629 26.0141V35.3417ZM130.214 28.9227H126.096C124.274 28.9227 123.348 31.406 124.961 32.4631C127.229 33.9515 130.915 31.743 130.214 28.9227Z" fill="#0E0E0E"/>
<path d="M74.3219 19.9542C87.6912 18.2652 86.7129 37.8631 74.3219 35.4901C65.6835 33.8352 66.2641 20.9732 74.3219 19.9542ZM74.9145 22.951C70.0569 23.942 70.519 33.5925 77.0319 32.4872C82.1989 31.6106 81.4576 21.6171 74.9145 22.951Z" fill="#0E0E0E"/>
<path d="M137.848 41.3594L140.66 34.0579L134.636 20.0966L138.557 20.4918L142.571 30.5254L146.49 20.0946C146.693 20.0204 146.91 20.2972 146.991 20.2972H150.004L141.667 41.3594H137.85H137.848Z" fill="#0E0E0E"/>
<path d="M91.241 16.0847V20.2972H94.5557C94.6059 20.2972 94.6742 20.1347 94.7566 20.1427L95.0338 20.4215L95.0579 23.1055H91.241V30.8283C91.241 32.4311 93.945 32.5153 95.0579 32.1322V35.0408L94.7184 35.3035C92.8803 35.7007 90.0638 35.6726 88.7419 34.1261C88.4546 33.7911 87.8258 32.3889 87.8258 32.0319V23.1055H85.2142V20.0966L87.4863 20.3032C87.6189 20.2631 87.8258 19.8499 87.8258 19.7957V16.0847H91.241Z" fill="#0E0E0E"/>
</svg>
