<svg width="200" height="61" viewBox="0 0 200 61" fill="none" xmlns="http://www.w3.org/2000/svg">
<g clip-path="url(#clip0_19_111)">
<path d="M29.6436 60.6993C29.5793 60.7046 29.1802 61.2712 28.9767 60.8349C30.2463 59.4624 30.8838 57.6934 31.4222 55.9485C31.9472 55.616 41.5471 56.1054 43.3043 55.9112C43.8909 55.8474 44.8846 55.6532 45.1739 55.1105L45.3882 21.9452L25.366 5.64181L24.4338 6.05146L5.54998 21.61L5.12409 23.0491C5.82855 32.8141 4.22945 43.7761 5.12409 53.3975C5.30355 55.326 5.73212 55.7463 7.66872 55.9245C9.89996 56.1293 19.5696 56.1932 21.2704 55.5787C23.6276 54.7248 23.7186 52.2217 23.6169 50.0618H15.4473C15.3669 50.0618 15.241 50.3996 15.0455 50.3278V21.0674H29.1079C30.4311 21.0674 33.1552 22.3149 34.1918 23.2007C37.7302 26.2332 37.3605 32.6252 32.9918 34.6362C34.8561 36.1684 37.0686 37.557 37.4811 40.1505C38.5123 46.6303 33.9936 50.0405 27.9026 50.0645C28.9177 54.3099 26.6811 59.0713 22.2776 60.3029C19.749 61.0105 8.6705 61.0478 5.82587 60.678C2.98124 60.3083 0.559821 57.9195 0.3 54.9935C1.05268 44.0927 -0.664281 31.9416 0.3 21.1897C0.415178 19.8916 0.910712 18.6095 1.91249 17.737C8.77496 12.8558 15.0749 6.1951 21.8812 1.38841C23.5419 0.215331 24.5811 -0.412438 26.7106 0.305773C32.9757 5.18694 39.3748 10.0734 45.4418 15.2206C48.0882 17.4683 50.0837 18.4286 50.4132 22.2538C49.7596 32.6066 51.2542 43.9464 50.3998 54.1795C50.1882 56.7039 49.3257 58.8718 46.9391 60.0529C46.6712 60.1859 45.3346 60.6993 45.1793 60.6993C40.2346 60.6993 34.4757 60.3269 29.6436 60.6993ZM20.4026 33.0349H27.2329C27.5436 33.0349 29.4186 32.1491 29.7856 31.8458C31.2615 30.6355 31.6927 28.2282 30.3186 26.7785C29.9517 26.3901 28.2026 25.5868 27.7686 25.5868H20.1347C20.0624 25.781 20.4026 25.906 20.4026 25.9858V33.0349ZM20.4026 45.8031H26.6972C26.8231 45.8031 28.4704 45.4892 28.7222 45.42C31.3579 44.7204 32.9999 42.3716 31.7088 39.7595C31.1356 38.5997 29.0302 37.2883 27.7686 37.2883H20.1347C20.0624 37.4825 20.4026 37.6075 20.4026 37.6873V45.8004V45.8031Z" fill="white"/>
<path d="M80.0005 18.1388C87.3773 19.0086 90.3639 27.9144 83.6166 31.838C89.4451 34.5565 90.1978 42.659 84.1603 45.6808C83.6755 45.9229 81.1523 46.8672 80.8014 46.8672H66.4711V18.1388C70.7434 18.5032 75.8247 17.6467 79.9979 18.1388H80.0005ZM77.8577 22.3948C75.9023 22.1661 73.564 22.5624 71.5631 22.3948V30.109H77.8577C79.122 30.109 81.463 28.4358 81.8273 27.1377C82.6443 24.2223 80.5363 22.7087 77.8577 22.3948ZM71.5631 42.6111H78.9291C79.1327 42.6111 80.5684 42.0366 80.8604 41.869C83.9407 40.1267 83.6889 35.8014 80.3246 34.5752C80.0729 34.4821 78.7791 34.099 78.6613 34.099H71.5631V42.6111Z" fill="white"/>
<path d="M137.458 40.4831L142.015 26.6509C143.006 27.3771 145.751 26.2226 146.263 27.0605L150.447 40.2197L154.732 26.8983L159.685 26.6535L152.734 46.7475L148.465 46.8432L144.018 33.301L139.84 46.8432L135.704 46.8885L128.619 26.6535L133.304 26.9009L137.458 40.4857V40.4831Z" fill="white"/>
<path d="M178.17 46.8672H173.616C173.565 46.133 173.879 45.2472 173.214 44.7444C168.65 50.0113 157.802 46.1596 161.161 38.621C161.769 37.2538 162.862 36.3839 164.244 35.8307C164.895 35.57 167.287 34.897 167.857 34.897H173.348C174.551 29.662 166.593 27.9809 166.116 33.301H161.697C161.072 32.8488 161.622 31.2235 161.887 30.5638C164.236 24.7144 175.652 24.7649 177.559 31.1144C177.768 31.814 178.17 33.8649 178.17 34.498V46.8672ZM173.616 38.355H168.125C165.696 38.355 164.461 41.6482 166.612 43.05C169.636 45.0238 174.551 42.095 173.616 38.355Z" fill="white"/>
<path d="M99.0933 26.4618C116.919 24.2221 115.615 50.2106 99.0933 47.0638C87.5755 44.8693 88.3496 27.8131 99.0933 26.4618ZM99.8835 30.4359C93.4067 31.75 94.0228 44.5474 102.707 43.0817C109.596 41.9193 108.608 28.667 99.8835 30.4359Z" fill="white"/>
<path d="M183.795 54.8472L187.545 45.1646L179.512 26.6508L184.74 27.1748L190.092 40.4803L195.318 26.6481C195.588 26.5497 195.878 26.9168 195.985 26.9168H200.003L188.887 54.8472H183.797H183.795Z" fill="white"/>
<path d="M121.652 21.3306V26.9166H126.072C126.139 26.9166 126.23 26.7012 126.34 26.7118L126.709 27.0816L126.741 30.6407H121.652V40.8818C121.652 43.0072 125.257 43.1189 126.741 42.6109V46.4679L126.289 46.8164C123.838 47.3431 120.082 47.3058 118.32 45.255C117.937 44.8107 117.099 42.9514 117.099 42.4779V30.6407H113.616V26.6506L116.646 26.9246C116.823 26.8714 117.099 26.3235 117.099 26.2516V21.3306H121.652Z" fill="white"/>
</g>
<defs>
<clipPath id="clip0_19_111">
<rect width="200" height="61" fill="white"/>
</clipPath>
</defs>
</svg>
